<?xml version="1.0" encoding="UTF-8"?>
<!DOCTYPE svg PUBLIC "-//W3C//DTD SVG 1.1//EN" "http://www.w3.org/Graphics/SVG/1.1/DTD/svg11.dtd">
<svg xmlns="http://www.w3.org/2000/svg" version="1.1" width="512px" height="512px" style="shape-rendering:geometricPrecision; text-rendering:geometricPrecision; image-rendering:optimizeQuality; fill-rule:evenodd; clip-rule:evenodd" xmlns:xlink="http://www.w3.org/1999/xlink">
<g><path style="opacity:1" fill="#58585a" d="M 386.5,49.5 C 382.833,49.5 379.167,49.5 375.5,49.5C 292.335,48.5007 209.002,48.1673 125.5,48.5C 125.232,37.1286 125.566,25.7953 126.5,14.5C 126.916,12.2475 128.249,10.7475 130.5,10C 213.833,9.33333 297.167,9.33333 380.5,10C 383.381,11.2506 385.214,13.4173 386,16.5C 386.5,27.495 386.667,38.495 386.5,49.5 Z"/></g>
<g><path style="opacity:1" fill="#e1e2e3" d="M 147.5,19.5 C 153.176,19.3339 158.843,19.5006 164.5,20C 165.639,25.4162 165.806,30.9162 165,36.5C 159.25,37.6406 153.416,37.8072 147.5,37C 146.187,31.167 146.187,25.3337 147.5,19.5 Z"/></g>
<g><path style="opacity:1" fill="#e1e2e3" d="M 197.5,19.5 C 203.176,19.3339 208.843,19.5006 214.5,20C 215.637,25.082 215.804,30.2487 215,35.5C 214.5,36 214,36.5 213.5,37C 208.167,37.6667 202.833,37.6667 197.5,37C 196.187,31.167 196.187,25.3337 197.5,19.5 Z"/></g>
<g><path style="opacity:1" fill="#e5e6e7" d="M 246.5,19.5 C 252.5,19.5 258.5,19.5 264.5,19.5C 264.666,25.1764 264.499,30.8431 264,36.5C 258.333,37.8333 252.667,37.8333 247,36.5C 246.501,30.8431 246.334,25.1764 246.5,19.5 Z"/></g>
<g><path style="opacity:1" fill="#e1e2e3" d="M 296.5,19.5 C 302.176,19.3339 307.843,19.5006 313.5,20C 314.639,25.4162 314.806,30.9162 314,36.5C 297.092,42.0919 291.259,36.4252 296.5,19.5 Z"/></g>
<g><path style="opacity:1" fill="#e1e2e3" d="M 346.5,19.5 C 352.176,19.3339 357.843,19.5006 363.5,20C 364.639,25.4162 364.806,30.9162 364,36.5C 358.25,37.6406 352.416,37.8072 346.5,37C 345.187,31.167 345.187,25.3337 346.5,19.5 Z"/></g>
<g><path style="opacity:1" fill="#aaabac" d="M 126.5,14.5 C 125.566,25.7953 125.232,37.1286 125.5,48.5C 209.002,48.1673 292.335,48.5007 375.5,49.5C 291.833,49.5 208.167,49.5 124.5,49.5C 124.333,38.495 124.5,27.495 125,16.5C 125.278,15.5842 125.778,14.9175 126.5,14.5 Z"/></g>
<g><path style="opacity:1" fill="#e5e6e8" d="M 124.5,49.5 C 208.167,49.5 291.833,49.5 375.5,49.5C 375.5,102.167 375.5,154.833 375.5,207.5C 292.167,207.5 208.833,207.5 125.5,207.5C 125.5,191.5 125.5,175.5 125.5,159.5C 125.791,153.077 125.458,146.744 124.5,140.5C 124.5,110.167 124.5,79.8333 124.5,49.5 Z"/></g>
<g><path style="opacity:1" fill="#d1d3d4" d="M 375.5,49.5 C 379.167,49.5 382.833,49.5 386.5,49.5C 386.5,79.8333 386.5,110.167 386.5,140.5C 386.5,146.833 386.5,153.167 386.5,159.5C 385.504,175.658 385.17,191.991 385.5,208.5C 382.167,208.5 378.833,208.5 375.5,208.5C 292.167,208.5 208.833,208.5 125.5,208.5C 125.5,208.167 125.5,207.833 125.5,207.5C 208.833,207.5 292.167,207.5 375.5,207.5C 375.5,154.833 375.5,102.167 375.5,49.5 Z"/></g>
<g><path style="opacity:1" fill="#a54af3" d="M 357.5,58.5 C 356.5,58.5 355.5,58.5 354.5,58.5C 354.667,99.5014 354.5,140.501 354,181.5C 353.117,184.102 351.617,186.269 349.5,188C 282.225,189.49 214.892,189.99 147.5,189.5C 147.5,190.5 147.5,191.5 147.5,192.5C 146.335,150.335 146.169,108.002 147,65.5C 147.883,62.8976 149.383,60.7309 151.5,59C 186.083,57.8396 220.75,57.3396 255.5,57.5C 289.668,57.5 323.668,57.8333 357.5,58.5 Z"/></g>
<g><path style="opacity:1" fill="#8a3bdd" d="M 357.5,58.5 C 360.428,59.5914 362.594,61.5914 364,64.5C 364.667,107.167 364.667,149.833 364,192.5C 362.833,195.667 360.667,197.833 357.5,199C 289.167,199.667 220.833,199.667 152.5,199C 149.979,197.442 148.312,195.275 147.5,192.5C 147.5,191.5 147.5,190.5 147.5,189.5C 214.892,189.99 282.225,189.49 349.5,188C 351.617,186.269 353.117,184.102 354,181.5C 354.5,140.501 354.667,99.5014 354.5,58.5C 355.5,58.5 356.5,58.5 357.5,58.5 Z"/></g>
<g><path style="opacity:1" fill="#fec71f" d="M 274.5,118.5 C 274.572,121.522 273.238,123.688 270.5,125C 255.599,134.751 240.599,144.251 225.5,153.5C 225.333,133.831 225.5,114.164 226,94.5C 228.775,91.3461 231.942,90.8461 235.5,93C 248.528,101.51 261.528,110.01 274.5,118.5 Z"/></g>
<g><path style="opacity:1" fill="#fda81f" d="M 274.5,118.5 C 279.502,120.508 283.169,123.842 285.5,128.5C 285.152,130.697 284.152,132.53 282.5,134C 266.231,143.939 250.231,154.273 234.5,165C 226.337,165.644 223.337,161.81 225.5,153.5C 240.599,144.251 255.599,134.751 270.5,125C 273.238,123.688 274.572,121.522 274.5,118.5 Z"/></g>
<g><path style="opacity:0.985" fill="#57585b" d="M 124.5,140.5 C 125.458,146.744 125.791,153.077 125.5,159.5C 98.9947,159.169 72.6614,159.502 46.5,160.5C 43.7245,161.312 41.5579,162.979 40,165.5C 39.5,236.833 39.3333,308.166 39.5,379.5C 39.5,382.833 39.5,386.167 39.5,389.5C 39.1994,394.048 41.1994,397.215 45.5,399C 186.247,399.997 326.914,399.663 467.5,398C 469.81,396.363 471.31,394.196 472,391.5C 472.667,316.833 472.667,242.167 472,167.5C 470.917,163.582 468.417,161.248 464.5,160.5C 460.366,159.515 456.032,159.182 451.5,159.5C 429.833,159.5 408.167,159.5 386.5,159.5C 386.5,153.167 386.5,146.833 386.5,140.5C 414.502,140.333 442.502,140.5 470.5,141C 473.457,141.279 476.123,142.113 478.5,143.5C 478.659,233.588 478.493,323.922 478,414.5C 475.192,421.661 470.026,426.161 462.5,428C 318.167,428.667 173.833,428.667 29.5,428C 27.5643,427.187 25.5643,426.687 23.5,426.5C 22.9101,425.234 22.4101,423.901 22,422.5C 21.8333,378.333 21.6667,334.167 21.5,290C 21.3433,244.455 21.8433,198.955 23,153.5C 26.4706,146.016 32.3039,141.849 40.5,141C 68.498,140.5 96.498,140.333 124.5,140.5 Z"/></g>
<g><path style="opacity:1" fill="#424143" d="M 478.5,143.5 C 484.447,146.287 487.947,150.954 489,157.5C 489.667,245.833 489.667,334.167 489,422.5C 487.167,431 482,436.167 473.5,438C 411.501,438.5 349.501,438.667 287.5,438.5C 283.5,438.5 279.5,438.5 275.5,438.5C 258.167,438.5 240.833,438.5 223.5,438.5C 161.499,438.667 99.4991,438.5 37.5,438C 30.981,436.263 26.3143,432.43 23.5,426.5C 25.5643,426.687 27.5643,427.187 29.5,428C 173.833,428.667 318.167,428.667 462.5,428C 470.026,426.161 475.192,421.661 478,414.5C 478.493,323.922 478.659,233.588 478.5,143.5 Z"/></g>
<g><path style="opacity:1" fill="#478bf6" d="M 46.5,160.5 C 72.5,160.5 98.5,160.5 124.5,160.5C 124.169,187.005 124.502,213.339 125.5,239.5C 126.183,243.02 128.183,245.52 131.5,247C 214.167,247.667 296.833,247.667 379.5,247C 383.276,245.395 385.276,242.562 385.5,238.5C 386.498,212.672 386.831,186.672 386.5,160.5C 408.167,160.5 429.833,160.5 451.5,160.5C 451.667,231.501 451.5,302.501 451,373.5C 449.749,376.381 447.583,378.214 444.5,379C 309.5,379.5 174.5,379.667 39.5,379.5C 39.3333,308.166 39.5,236.833 40,165.5C 41.5579,162.979 43.7245,161.312 46.5,160.5 Z"/></g>
<g><path style="opacity:1" fill="#6f93ca" d="M 386.5,159.5 C 408.167,159.5 429.833,159.5 451.5,159.5C 451.5,159.833 451.5,160.167 451.5,160.5C 429.833,160.5 408.167,160.5 386.5,160.5C 386.831,186.672 386.498,212.672 385.5,238.5C 385.5,228.5 385.5,218.5 385.5,208.5C 385.17,191.991 385.504,175.658 386.5,159.5 Z"/></g>
<g><path style="opacity:1" fill="#377de2" d="M 451.5,159.5 C 456.032,159.182 460.366,159.515 464.5,160.5C 463.5,160.5 462.5,160.5 461.5,160.5C 461.667,234.834 461.5,309.167 461,383.5C 460.215,385.286 459.049,386.786 457.5,388C 318.223,389.495 178.889,389.995 39.5,389.5C 39.5,386.167 39.5,382.833 39.5,379.5C 174.5,379.667 309.5,379.5 444.5,379C 447.583,378.214 449.749,376.381 451,373.5C 451.5,302.501 451.667,231.501 451.5,160.5C 451.5,160.167 451.5,159.833 451.5,159.5 Z"/></g>
<g><path style="opacity:1" fill="#2366d2" d="M 464.5,160.5 C 468.417,161.248 470.917,163.582 472,167.5C 472.667,242.167 472.667,316.833 472,391.5C 471.31,394.196 469.81,396.363 467.5,398C 326.914,399.663 186.247,399.997 45.5,399C 41.1994,397.215 39.1994,394.048 39.5,389.5C 178.889,389.995 318.223,389.495 457.5,388C 459.049,386.786 460.215,385.286 461,383.5C 461.5,309.167 461.667,234.834 461.5,160.5C 462.5,160.5 463.5,160.5 464.5,160.5 Z"/></g>
<g><path style="opacity:1" fill="#628bcb" d="M 46.5,160.5 C 72.6614,159.502 98.9947,159.169 125.5,159.5C 125.5,175.5 125.5,191.5 125.5,207.5C 125.5,207.833 125.5,208.167 125.5,208.5C 125.5,218.167 125.5,227.833 125.5,237.5C 125.5,238.167 125.5,238.833 125.5,239.5C 124.502,213.339 124.169,187.005 124.5,160.5C 98.5,160.5 72.5,160.5 46.5,160.5 Z"/></g>
<g><path style="opacity:1" fill="#58595b" d="M 125.5,208.5 C 208.833,208.5 292.167,208.5 375.5,208.5C 375.666,216.174 375.5,223.841 375,231.5C 372.572,236.041 368.739,238.041 363.5,237.5C 368.741,220.575 362.908,214.908 346,220.5C 345.215,226.249 345.382,231.916 346.5,237.5C 335.5,237.5 324.5,237.5 313.5,237.5C 314.618,231.916 314.785,226.249 314,220.5C 297.092,214.908 291.259,220.575 296.5,237.5C 285.833,237.5 275.167,237.5 264.5,237.5C 264.666,231.824 264.499,226.157 264,220.5C 258.333,219.167 252.667,219.167 247,220.5C 246.501,226.157 246.334,231.824 246.5,237.5C 235.833,237.5 225.167,237.5 214.5,237.5C 219.741,220.575 213.908,214.908 197,220.5C 196.215,226.249 196.382,231.916 197.5,237.5C 186.5,237.5 175.5,237.5 164.5,237.5C 165.785,231.887 165.785,226.22 164.5,220.5C 147.802,215.198 142.135,220.865 147.5,237.5C 140.167,237.5 132.833,237.5 125.5,237.5C 125.5,227.833 125.5,218.167 125.5,208.5 Z"/></g>
<g><path style="opacity:1" fill="#414042" d="M 375.5,208.5 C 378.833,208.5 382.167,208.5 385.5,208.5C 385.5,218.5 385.5,228.5 385.5,238.5C 385.276,242.562 383.276,245.395 379.5,247C 296.833,247.667 214.167,247.667 131.5,247C 128.183,245.52 126.183,243.02 125.5,239.5C 125.5,238.833 125.5,238.167 125.5,237.5C 132.833,237.5 140.167,237.5 147.5,237.5C 153.167,238.833 158.833,238.833 164.5,237.5C 175.5,237.5 186.5,237.5 197.5,237.5C 203.167,238.833 208.833,238.833 214.5,237.5C 225.167,237.5 235.833,237.5 246.5,237.5C 252.5,238.833 258.5,238.833 264.5,237.5C 275.167,237.5 285.833,237.5 296.5,237.5C 302.167,238.833 307.833,238.833 313.5,237.5C 324.5,237.5 335.5,237.5 346.5,237.5C 352.167,238.833 357.833,238.833 363.5,237.5C 368.739,238.041 372.572,236.041 375,231.5C 375.5,223.841 375.666,216.174 375.5,208.5 Z"/></g>
<g><path style="opacity:1" fill="#dedfe0" d="M 164.5,237.5 C 158.833,238.833 153.167,238.833 147.5,237.5C 142.135,220.865 147.802,215.198 164.5,220.5C 165.785,226.22 165.785,231.887 164.5,237.5 Z"/></g>
<g><path style="opacity:1" fill="#dedfe0" d="M 214.5,237.5 C 208.833,238.833 203.167,238.833 197.5,237.5C 196.382,231.916 196.215,226.249 197,220.5C 213.908,214.908 219.741,220.575 214.5,237.5 Z"/></g>
<g><path style="opacity:1" fill="#e1e2e3" d="M 264.5,237.5 C 258.5,238.833 252.5,238.833 246.5,237.5C 246.334,231.824 246.501,226.157 247,220.5C 252.667,219.167 258.333,219.167 264,220.5C 264.499,226.157 264.666,231.824 264.5,237.5 Z"/></g>
<g><path style="opacity:1" fill="#dedfe0" d="M 313.5,237.5 C 307.833,238.833 302.167,238.833 296.5,237.5C 291.259,220.575 297.092,214.908 314,220.5C 314.785,226.249 314.618,231.916 313.5,237.5 Z"/></g>
<g><path style="opacity:1" fill="#dedfe0" d="M 363.5,237.5 C 357.833,238.833 352.167,238.833 346.5,237.5C 345.382,231.916 345.215,226.249 346,220.5C 362.908,214.908 368.741,220.575 363.5,237.5 Z"/></g>
<g><path style="opacity:1" fill="#5d9bf7" d="M 49.5,222.5 C 51.7224,222.178 53.5557,222.845 55,224.5C 55.6667,266.167 55.6667,307.833 55,349.5C 53.0121,352.838 50.6788,353.172 48,350.5C 47.8333,329.333 47.6667,308.167 47.5,287C 47.5109,265.284 48.1776,243.784 49.5,222.5 Z"/></g>
<g><path style="opacity:1" fill="#cf042b" d="M 170.5,347.5 C 170.5,355.5 170.5,363.5 170.5,371.5C 167.628,376.704 164.961,376.704 162.5,371.5C 162.5,363.5 162.5,355.5 162.5,347.5C 162.667,324.498 162.5,301.498 162,278.5C 154.935,272.918 154.768,267.084 161.5,261C 169.119,258.644 174.119,261.31 176.5,269C 176.344,273.134 174.51,276.301 171,278.5C 170.5,301.498 170.333,324.498 170.5,347.5 Z"/></g>
<g><path style="opacity:1" fill="#fec81d" d="M 262.5,287.5 C 318.168,287.333 373.834,287.5 429.5,288C 430.646,295.086 430.812,302.253 430,309.5C 429.5,310 429,310.5 428.5,311C 373.167,311.667 317.833,311.667 262.5,311C 262,310.5 261.5,310 261,309.5C 259.927,301.895 260.427,294.562 262.5,287.5 Z"/></g>
<g><path style="opacity:1" fill="#fbc724" d="M 212.5,317.5 C 227.837,317.333 243.17,317.5 258.5,318C 259,318.5 259.5,319 260,319.5C 260.667,325.833 260.667,332.167 260,338.5C 259.5,339.667 258.667,340.5 257.5,341C 242.833,341.667 228.167,341.667 213.5,341C 212.333,340.5 211.5,339.667 211,338.5C 210.333,332.167 210.333,325.833 211,319.5C 211.717,318.956 212.217,318.289 212.5,317.5 Z"/></g>
<g><path style="opacity:1" fill="#fec81d" d="M 162.5,347.5 C 162.5,355.5 162.5,363.5 162.5,371.5C 135.831,371.667 109.165,371.5 82.5,371C 82,370.5 81.5,370 81,369.5C 80.8333,366 80.6667,362.5 80.5,359C 80.5442,355.069 81.2109,351.402 82.5,348C 109.165,347.5 135.831,347.333 162.5,347.5 Z"/></g>
<g><path style="opacity:1" fill="#fec81e" d="M 170.5,347.5 C 183.504,347.333 196.504,347.5 209.5,348C 210.646,355.086 210.812,362.253 210,369.5C 209.5,370 209,370.5 208.5,371C 195.838,371.5 183.171,371.667 170.5,371.5C 170.5,363.5 170.5,355.5 170.5,347.5 Z"/></g>
<g><path style="opacity:1" fill="#919396" d="M 251.5,408.5 C 261.855,408.01 265.689,412.677 263,422.5C 257.921,427.726 252.921,427.726 248,422.5C 246.682,419.594 246.348,416.594 247,413.5C 248.707,411.963 250.207,410.296 251.5,408.5 Z"/></g>
<g><path style="opacity:1" fill="#929497" d="M 223.5,438.5 C 240.833,438.5 258.167,438.5 275.5,438.5C 275.884,445.589 275.384,452.589 274,459.5C 272.786,461.049 271.286,462.215 269.5,463C 254.17,463.5 238.837,463.667 223.5,463.5C 223.5,455.167 223.5,446.833 223.5,438.5 Z"/></g>
<g><path style="opacity:1" fill="#808285" d="M 275.5,438.5 C 279.5,438.5 283.5,438.5 287.5,438.5C 287.5,450.833 287.5,463.167 287.5,475.5C 266.167,475.5 244.833,475.5 223.5,475.5C 223.5,471.5 223.5,467.5 223.5,463.5C 238.837,463.667 254.17,463.5 269.5,463C 271.286,462.215 272.786,461.049 274,459.5C 275.384,452.589 275.884,445.589 275.5,438.5 Z"/></g>
<g><path style="opacity:0.994" fill="#57585a" d="M 223.5,475.5 C 244.833,475.5 266.167,475.5 287.5,475.5C 322.004,475.168 356.337,475.502 390.5,476.5C 389.5,476.5 388.5,476.5 387.5,476.5C 387.666,480.514 387.499,484.514 387,488.5C 386.167,489.333 385.333,490.167 384.5,491C 294.167,491.5 203.834,491.667 113.5,491.5C 112.469,484.735 114.802,479.568 120.5,476C 154.832,475.5 189.165,475.333 223.5,475.5 Z"/></g>
<g><path style="opacity:1" fill="#414042" d="M 390.5,476.5 C 393.822,477.658 395.988,479.992 397,483.5C 397.499,489.491 397.666,495.491 397.5,501.5C 302.833,501.5 208.167,501.5 113.5,501.5C 113.5,498.167 113.5,494.833 113.5,491.5C 203.834,491.667 294.167,491.5 384.5,491C 385.333,490.167 386.167,489.333 387,488.5C 387.499,484.514 387.666,480.514 387.5,476.5C 388.5,476.5 389.5,476.5 390.5,476.5 Z"/></g>
</svg>
