<?xml version="1.0" encoding="UTF-8"?>
<svg version="1.1" xmlns="http://www.w3.org/2000/svg" width="512" height="512">
<path d="M0 0 C0.95003906 -0.02835938 1.90007812 -0.05671875 2.87890625 -0.0859375 C9.70645169 -0.10514297 9.70645169 -0.10514297 12.984375 2.39453125 C15.08625388 6.70121607 16.19230257 11.02764432 17.25 15.6875 C17.47042969 16.60208984 17.69085938 17.51667969 17.91796875 18.45898438 C19.5 25.11628979 19.5 25.11628979 19.5 27.5 C20.758125 27.726875 22.01625 27.95375 23.3125 28.1875 C28.18146205 29.24730562 32.38008881 31.16013323 36.82421875 33.37890625 C39.94799227 34.68769895 42.08776975 35.45371821 45.5 35.5 C48.3885752 34.19486428 50.91007197 32.44087059 53.5 30.625 C62.39928535 24.48583135 62.39928535 24.48583135 67.5 24.5 C71.68117228 26.34048534 74.57211495 29.3322845 77.75 32.5625 C78.62140625 33.44035156 79.4928125 34.31820312 80.390625 35.22265625 C82.91455333 37.94756406 83.41901154 38.92440343 83.9375 42.609375 C83.41755431 47.23317777 81.95976963 48.97767172 79.18066406 52.55175781 C74.01823665 59.13359708 74.01823665 59.13359708 72.74804688 67.08984375 C74.27906565 72.27115411 76.80198984 76.85319052 79.49023438 81.51367188 C80.81369331 84.11707176 81.26027996 86.60491951 81.5 89.5 C82.15484375 89.60957031 82.8096875 89.71914062 83.484375 89.83203125 C88.68697059 90.73587201 93.85529956 91.74543527 99 92.9375 C99.9796875 93.16308594 100.959375 93.38867188 101.96875 93.62109375 C104.72569908 94.57836774 105.73358065 95.21439765 107.5 97.5 C108.13908587 101.30285053 107.96329513 105.14949037 107.9375 109 C107.95748047 110.05832031 107.97746094 111.11664063 107.99804688 112.20703125 C107.99740234 113.22152344 107.99675781 114.23601562 107.99609375 115.28125 C107.99794678 116.21001953 107.9997998 117.13878906 108.00170898 118.09570312 C107.5 120.5 107.5 120.5 105.76245117 122.24169922 C103.41839928 123.54538363 101.41266951 124.24385201 98.8046875 124.8515625 C97.92425781 125.06296875 97.04382813 125.274375 96.13671875 125.4921875 C94.76966797 125.80542969 94.76966797 125.80542969 93.375 126.125 C91.55944722 126.55278803 89.74432009 126.98238779 87.9296875 127.4140625 C87.12772949 127.5992041 86.32577148 127.7843457 85.49951172 127.97509766 C83.44770478 128.44054283 83.44770478 128.44054283 81.5 129.5 C80.82561494 131.28756214 80.2354208 133.10721139 79.6875 134.9375 C78.07670415 140.08837191 76.0352356 144.52997966 73.2578125 149.1484375 C72.15735837 152.56324876 73.06300298 154.25360109 74.5 157.5 C75.80968446 159.80333054 77.13348095 162.02594531 78.5625 164.25 C84.2450551 173.24151196 84.2450551 173.24151196 83.5 178.5 C81.63330469 181.29133424 79.34052174 183.54258377 76.9375 185.875 C76.02387695 186.83599609 76.02387695 186.83599609 75.09179688 187.81640625 C72.12432192 190.76189991 70.2292191 192.33171867 66.09765625 193.28515625 C61.89011895 192.36689892 59.37376739 190.68245568 55.89013672 188.23095703 C49.18229003 183.27654184 49.18229003 183.27654184 41.30371094 181.61767578 C36.53922903 183.01587405 32.63113943 185.82341745 28.5 188.5 C25.64453125 189.39453125 25.64453125 189.39453125 23.1875 189.9375 C21.13118487 190.51686763 21.13118487 190.51686763 19.5 191.5 C18.09407293 194.60475561 17.74130252 196.1979491 17.5 199.5 C17.41169922 200.66168701 17.32339844 201.82337402 17.23242188 203.02026367 C17.14541016 204.26525635 17.05839844 205.51024902 16.96875 206.79296875 C16.88044922 208.05004639 16.79214844 209.30712402 16.70117188 210.60229492 C16.63478516 211.5585376 16.56839844 212.51478027 16.5 213.5 C18.07734421 213.49000725 18.07734421 213.49000725 19.68655396 213.47981262 C29.60333326 213.41896048 39.52007462 213.37400762 49.43699837 213.34456348 C54.5352266 213.328917 59.63330392 213.30769717 64.73144531 213.27368164 C69.65273392 213.24105211 74.57387751 213.22313933 79.49526596 213.21536827 C81.3715226 213.20983123 83.24777143 213.19901872 85.12396622 213.18280983 C87.75485551 213.16098779 90.38514784 213.15803507 93.01611328 213.15942383 C93.7893544 213.148638 94.56259552 213.13785217 95.35926819 213.1267395 C100.86177677 213.15810625 105.06335845 214.22541537 109.14453125 218.03515625 C112.11254296 221.91640234 113.59646826 224.07263811 113.81341076 228.91198635 C113.85495181 229.8233556 113.89649286 230.73472486 113.93929273 231.67371136 C113.97819377 232.66475194 114.01709482 233.65579251 114.05717468 234.67686462 C114.12046149 236.22474368 114.12046149 236.22474368 114.18502682 237.80389303 C114.59912626 248.76078157 114.62219276 259.7071123 114.58520508 270.67016602 C114.58159643 272.88054342 114.57839447 275.09092152 114.57556152 277.30130005 C114.56631434 283.22372765 114.55001427 289.14611274 114.53119111 295.06851697 C114.51946291 298.77550839 114.50882503 302.48250156 114.49844933 306.18949699 C114.46536453 317.8111034 114.42745061 329.4326805 114.38308412 341.05424935 C114.33467237 353.76564741 114.29989624 366.47694216 114.28094129 379.18841673 C114.26419599 390.23850539 114.23219365 401.28846655 114.18605727 412.33847183 C114.16058223 418.5255232 114.14162843 424.71243143 114.13868141 430.89953804 C114.13553497 436.70044832 114.11360638 442.50098338 114.07712555 448.30177689 C114.06700194 450.4294426 114.06368517 452.55715316 114.06765556 454.68483925 C114.07203502 457.58745021 114.05195334 460.48890042 114.02571106 463.39137268 C114.03278936 464.23367024 114.03986766 465.07596781 114.04716045 465.94378954 C113.96554508 471.23084429 113.2187891 474.45929468 109.5 478.5 C102.81882497 484.00358707 94.1969439 483.04792375 86.0357666 482.98101807 C84.45318562 482.98276363 82.87060576 482.98626826 81.28803205 482.99137473 C76.95055669 483.0003016 72.61347782 482.98434269 68.27605295 482.96426249 C63.59448692 482.94696882 58.91294276 482.95283554 54.23135376 482.95587158 C46.12395441 482.95796773 38.01668395 482.94543083 29.90931702 482.92292023 C18.18748533 482.89039505 6.46571589 482.87999267 -5.25615603 482.87496826 C-24.27464715 482.86621643 -43.2930696 482.83960386 -62.31152344 482.80175781 C-80.78482724 482.76503485 -99.25811238 482.73672447 -117.73144531 482.71972656 C-118.87037584 482.71867567 -120.00930636 482.71762477 -121.18274993 482.71654204 C-126.89649995 482.71132184 -132.61025011 482.70626702 -138.32400036 482.70129442 C-185.7160477 482.65983587 -233.1080205 482.58939045 -280.5 482.5 C-280.6171893 479.14613239 -280.68757584 475.79279851 -280.75 472.4375 C-280.78351563 471.49455078 -280.81703125 470.55160156 -280.8515625 469.58007812 C-280.93919946 463.29212622 -280.25717051 459.60148501 -276.5 454.5 C-271.60464683 450.48964583 -267.12109178 449.93956815 -260.94140625 450.109375 C-260.15225327 450.11503479 -259.36310028 450.12069458 -258.55003357 450.12652588 C-256.05354626 450.14874314 -253.55854625 450.19890781 -251.0625 450.25 C-249.36004691 450.27008412 -247.65757111 450.28833153 -245.95507812 450.3046875 C-241.8023651 450.34514257 -237.65282776 450.42345018 -233.5 450.5 C-233.5 439.94 -233.5 429.38 -233.5 418.5 C-237.22490723 418.52094727 -240.94981445 418.54189453 -244.78759766 418.56347656 C-257.0889906 418.62972919 -269.39038078 418.67413229 -281.69190407 418.70724869 C-289.15097785 418.72786319 -296.60988246 418.75596227 -304.06884766 418.80175781 C-310.57102713 418.84165994 -317.07308408 418.86744091 -323.57538259 418.87635398 C-327.0175178 418.88156311 -330.45930249 418.89378255 -333.90132523 418.92292023 C-337.74629475 418.95520415 -341.59092314 418.95595723 -345.43603516 418.95410156 C-346.57395508 418.96848267 -347.711875 418.98286377 -348.88427734 418.99768066 C-354.8710495 418.96637683 -358.98039038 418.86228616 -363.5 414.5 C-367.84068398 408.4676229 -368.06883498 403.64130233 -368.00120544 396.3344574 C-368.00673984 395.21790002 -368.01227424 394.10134265 -368.01797634 392.95095021 C-368.03157737 389.21373638 -368.01661576 385.47719099 -368.00170898 381.73999023 C-368.00549233 379.05905323 -368.01084002 376.37816073 -368.01808167 373.69723511 C-368.03200108 367.17424523 -368.02446786 360.65144918 -368.00940608 354.12846857 C-367.9925309 346.53046661 -367.99575811 338.93251273 -367.99950016 331.33449782 C-368.00537626 317.77740276 -367.99121649 304.22040064 -367.96655273 290.66333008 C-367.94262794 277.5109509 -367.93555063 264.35869586 -367.94604492 251.20629883 C-367.95745584 236.87945832 -367.95938242 222.5526752 -367.94494683 208.22583538 C-367.943421 206.69801748 -367.94190065 205.17019958 -367.94038582 203.64238167 C-367.939628 202.89068875 -367.93887019 202.13899584 -367.93808941 201.36452435 C-367.9333483 196.06931103 -367.93519676 190.77412337 -367.93945122 185.47891045 C-367.94437931 179.02591319 -367.93838705 172.57303327 -367.91855692 166.12006288 C-367.90868976 162.82814592 -367.90518366 159.53644396 -367.91144943 156.24451256 C-367.91739113 152.67566941 -367.90491766 149.10735448 -367.88768005 145.53855896 C-367.8936901 144.49858196 -367.89970014 143.45860496 -367.90589231 142.38711351 C-367.8517939 136.24269285 -367.29430173 131.63706941 -363.03515625 126.85546875 C-358.63822459 123.36824709 -355.64496801 122.37416921 -350.13470078 122.37695217 C-348.82693133 122.3739656 -348.82693133 122.3739656 -347.4927423 122.37091869 C-346.53943849 122.37383153 -345.58613468 122.37674437 -344.60394287 122.37974548 C-343.07973484 122.37846385 -343.07973484 122.37846385 -341.52473474 122.37715632 C-338.10989653 122.37550537 -334.69510714 122.38101664 -331.28027344 122.38647461 C-328.83636476 122.38675659 -326.39245599 122.38659853 -323.94854736 122.3860321 C-318.68185546 122.38580417 -313.41517883 122.38864598 -308.14849091 122.39426994 C-300.5337399 122.40239597 -292.91899489 122.4050013 -285.30424002 122.40625793 C-272.9498936 122.40844672 -260.59555378 122.41510211 -248.24121094 122.42456055 C-236.23990919 122.43373915 -224.23860924 122.44081779 -212.23730469 122.44506836 C-211.49758068 122.44533108 -210.75785667 122.44559381 -209.99571678 122.44586449 C-206.28474966 122.44716953 -202.57378252 122.44843323 -198.86281538 122.44967639 C-168.07520545 122.4600436 -137.28760373 122.47773153 -106.5 122.5 C-107.16 121.84 -107.82 121.18 -108.5 120.5 C-108.95482767 116.70653509 -108.8240335 112.88008871 -108.8125 109.0625 C-108.82861328 107.99966797 -108.84472656 106.93683594 -108.86132812 105.84179688 C-108.86197266 104.82279297 -108.86261719 103.80378906 -108.86328125 102.75390625 C-108.86775269 101.35120483 -108.86775269 101.35120483 -108.87231445 99.92016602 C-108.5 97.5 -108.5 97.5 -107.30126953 95.74560547 C-104.99153109 94.14838596 -103.08117794 93.79382381 -100.31640625 93.31640625 C-89.17595616 91.70683286 -89.17595616 91.70683286 -80.26953125 85.79296875 C-79.356059 82.68556752 -78.93092054 79.70572661 -78.5 76.5 C-77.24600502 73.79225863 -75.82881814 71.24865361 -74.35546875 68.65625 C-73.30920504 66.01909215 -73.62347737 65.15476946 -74.5 62.5 C-75.52197115 60.54343208 -75.52197115 60.54343208 -76.78515625 58.6015625 C-77.45708008 57.51101562 -77.45708008 57.51101562 -78.14257812 56.3984375 C-79.08678696 54.88666435 -80.0372924 53.37880513 -80.99414062 51.875 C-83.57305898 47.66239454 -85.4269788 44.59838338 -84.5 39.5 C-81.13774571 33.71605773 -74.46716384 27.47853356 -68.5 24.5 C-62.00915377 24.49075378 -56.93732409 28.68071784 -51.68945312 32.08203125 C-47.55423295 34.76242626 -47.55423295 34.76242626 -42.8125 35.45703125 C-40.19752093 34.37481863 -37.61668574 33.28343702 -35.0625 32.0625 C-25.25180636 27.5 -25.25180636 27.5 -19.5 27.5 C-19.4175 26.324375 -19.335 25.14875 -19.25 23.9375 C-18.73809155 19.41684368 -17.79153773 15.03317378 -16.6875 10.625 C-16.37167969 9.34882813 -16.05585938 8.07265625 -15.73046875 6.7578125 C-12.88036808 -0.78816831 -7.03882851 -0.0191013 0 0 Z M-34.8125 79.75 C-42.63256996 89.81409004 -46.26868464 101.33568182 -45.19921875 114.0859375 C-44.74222633 119.17260873 -44.74222633 119.17260873 -42.5 123.5 C-41.02278042 123.60681797 -39.5406021 123.64619924 -38.05957031 123.65771484 C-37.11478821 123.66797699 -36.1700061 123.67823914 -35.19659424 123.68881226 C-34.16749939 123.69611359 -33.13840454 123.70341492 -32.078125 123.7109375 C-29.91665918 123.73901252 -27.75520095 123.76767702 -25.59375 123.796875 C-22.1725287 123.8381182 -18.75144814 123.87498884 -15.33007812 123.90136719 C-12.03745892 123.92898025 -8.74549275 123.97486241 -5.453125 124.0234375 C-4.43212708 124.02669037 -3.41112915 124.02994324 -2.35919189 124.03329468 C2.8044759 124.12264559 6.23897185 124.27152598 10.5 127.5 C11.16 127.5 11.82 127.5 12.5 127.5 C14.66791454 132.84752254 15.73481589 137.43422645 16.0625 143.1875 C16.12727539 144.2403418 16.12727539 144.2403418 16.19335938 145.31445312 C16.2991736 147.04275206 16.40006581 148.7713511 16.5 150.5 C27.30660295 145.89718763 35.58983193 138.22564837 40.5 127.5 C45.7569334 114.30838275 45.79248454 103.69024785 40.5 90.5 C34.66399852 78.44117273 25.53576216 70.17861866 12.875 65.625 C-5.0322553 60.92293768 -22.19616064 66.34718754 -34.8125 79.75 Z " fill="#009AFE" transform="translate(382.5,14.5)"/>
<path d="M0 0 C5.99384385 -0.03368929 11.98772593 -0.05802904 17.98162365 -0.07986069 C22.4200383 -0.09605508 26.85834294 -0.11598121 31.29668617 -0.14621735 C35.32744787 -0.17304092 39.35798347 -0.18558956 43.38883209 -0.18599701 C44.81047805 -0.18847636 46.23212672 -0.19598528 47.65371323 -0.20922089 C49.54625809 -0.22614128 51.43895279 -0.2226921 53.33156776 -0.21811676 C54.36979683 -0.22176239 55.40802589 -0.22540802 56.47771645 -0.22916412 C60.61883776 0.29100844 63.98730763 1.81646933 67.04787636 4.6734848 C70.01588807 8.55473089 71.49981337 10.71096667 71.71675587 15.5503149 C71.75829692 16.46168416 71.79983797 17.37305341 71.84263784 18.31203991 C71.88153888 19.30308049 71.92043993 20.29412107 71.96051979 21.31519318 C72.0238066 22.86307224 72.0238066 22.86307224 72.08837193 24.44222158 C72.50247137 35.39911012 72.52553787 46.34544085 72.48855019 57.30849457 C72.48494154 59.51887197 72.48173958 61.72925007 72.47890663 63.9396286 C72.46965945 69.8620562 72.45335938 75.78444129 72.43453622 81.70684552 C72.42280801 85.41383694 72.41217014 89.12083012 72.40179443 92.82782555 C72.36870964 104.44943195 72.33079572 116.07100905 72.28642923 127.6925779 C72.23801747 140.40397596 72.20324134 153.11527072 72.18428639 165.82674528 C72.1675411 176.87683394 72.13553876 187.9267951 72.08940238 198.97680038 C72.06392734 205.16385175 72.04497354 211.35075998 72.04202652 217.53786659 C72.03888008 223.33877687 72.01695149 229.13931193 71.98047066 234.94010544 C71.97034705 237.06777115 71.96703028 239.19548171 71.97100067 241.3231678 C71.97538013 244.22577876 71.95529845 247.12722897 71.92905617 250.02970123 C71.93613447 250.8719988 71.94321276 251.71429636 71.95050555 252.58211809 C71.86889018 257.86917284 71.12213421 261.09762323 67.40334511 265.13832855 C61.7809828 269.2259074 56.34758888 269.71602495 49.57363319 269.65299225 C48.61280752 269.65993778 47.65198184 269.66688331 46.66204023 269.6740393 C43.45773058 269.6922663 40.25416488 269.68205676 37.04982948 269.67177582 C34.7463825 269.67883638 32.44294016 269.68758198 30.13950539 269.69788361 C23.89369725 269.72037019 17.6481426 269.71743965 11.40230942 269.70856214 C6.18594059 269.7034498 0.9696193 269.71074674 -4.24674463 269.71803421 C-17.25559906 269.73600177 -30.26431218 269.72962483 -43.27316147 269.7118644 C-54.56113694 269.69716598 -65.84884627 269.71180066 -77.13678747 269.74063457 C-88.74007936 269.77005231 -100.34323765 269.7804863 -111.94656515 269.77145237 C-118.45588595 269.76652303 -124.96499983 269.76873972 -131.47429466 269.78923988 C-137.59430402 269.80759186 -143.71381853 269.80164344 -149.83380127 269.77704048 C-152.0783501 269.77203146 -154.3229366 269.77552463 -156.56745529 269.78818893 C-159.6345196 269.80412399 -162.69995527 269.78916316 -165.76694298 269.76651764 C-166.65255614 269.77835337 -167.5381693 269.7901891 -168.45061922 269.80238348 C-174.67299857 269.70921171 -178.73925656 268.03728724 -183.59665489 264.13832855 C-186.76047902 260.66832789 -187.71969031 257.59013271 -187.73087597 252.94407177 C-187.73533381 252.08488351 -187.73979166 251.22569524 -187.74438459 250.34047097 C-187.74420022 249.39612893 -187.74401586 248.45178689 -187.74382591 247.47882843 C-187.7475026 246.47594467 -187.75117929 245.47306091 -187.75496739 244.43978673 C-187.76602184 241.06349803 -187.76985104 237.68724008 -187.77365685 234.31093597 C-187.77992008 231.89661307 -187.78656675 229.48229114 -187.79356956 227.06797028 C-187.81280791 219.81218074 -187.82339864 212.55639373 -187.83229735 205.30058643 C-187.83668083 201.88390812 -187.84204743 198.46723136 -187.84728622 195.05055428 C-187.86429672 183.69355815 -187.87879152 172.33656299 -187.88603497 160.97955608 C-187.88794486 158.03272437 -187.88986519 155.08589266 -187.89182091 152.13906097 C-187.89254652 151.04042967 -187.89254652 151.04042967 -187.89328679 149.9196038 C-187.90158954 138.05125711 -187.92693134 126.18301113 -187.95940159 114.31470843 C-187.99246373 102.13078875 -188.0104829 89.94692027 -188.01367921 77.76295549 C-188.01584494 70.92164349 -188.02460285 64.08047842 -188.05014038 57.23921013 C-188.07410286 50.80503844 -188.07767837 44.37105956 -188.067379 37.93684959 C-188.06688209 35.57373679 -188.07324774 33.21061121 -188.08693504 30.84753799 C-188.10456189 27.62429856 -188.09759258 24.4020188 -188.08440208 21.1787796 C-188.09537133 20.24112973 -188.10634058 19.30347986 -188.11764222 18.33741635 C-188.06242367 12.75814574 -187.32242547 9.56337077 -183.59665489 5.13832855 C-178.04279199 -0.23470765 -171.58253929 0.56353937 -164.3112545 0.59243011 C-162.94922592 0.58369145 -161.58720757 0.57321243 -160.22520447 0.56113815 C-156.512557 0.53323035 -152.80024172 0.52992245 -149.08750463 0.53087425 C-145.13669961 0.52762931 -141.18603982 0.50160584 -137.23531151 0.47829437 C-129.62561739 0.43698894 -122.01601124 0.41656395 -114.40622109 0.40386772 C-105.68518456 0.38866499 -96.96426233 0.3537853 -88.24329042 0.31790781 C-73.63470227 0.2584105 -59.02613013 0.21604522 -44.41745567 0.18520355 C-29.6113838 0.15391027 -14.8058573 0.08796314 0 0 Z " fill="#585663" transform="translate(424.5966548919678,227.8616714477539)"/>
<path d="M0 0 C73.26 0 146.52 0 222 0 C222.3125 59.125 222.3125 59.125 222.38793945 77.78564453 C222.42450895 83.3114002 222.42450895 83.3114002 222.4650116 88.83712769 C222.48114871 91.29600102 222.4914455 93.75491693 222.49711609 96.21383667 C222.50685011 99.94112882 222.53518362 103.66786508 222.56762695 107.39501953 C222.56620099 108.48826601 222.56477503 109.58151249 222.56330585 110.70788765 C222.63160069 116.19944001 222.8307449 120.29268894 226 125 C227.97614025 126.69067385 227.97614025 126.69067385 230.1875 127.8125 C231.4676292 128.52522058 232.74152832 129.24969978 234 130 C234 130.33 234 130.66 234 131 C185.49 131 136.98 131 87 131 C87 110 87 110 91 103 C96.22282109 99.08000884 100.14846977 98.43323611 106.55859375 98.609375 C107.74232323 98.61786469 107.74232323 98.61786469 108.94996643 98.62652588 C111.44645374 98.64874314 113.94145375 98.69890781 116.4375 98.75 C118.13995309 98.77008412 119.84242889 98.78833153 121.54492188 98.8046875 C125.6976349 98.84514257 129.84717224 98.92345018 134 99 C134 88.44 134 77.88 134 67 C130.27509277 67.02094727 126.55018555 67.04189453 122.71240234 67.06347656 C110.4110094 67.12972919 98.10961922 67.17413229 85.80809593 67.20724869 C78.34902215 67.22786319 70.89011754 67.25596227 63.43115234 67.30175781 C56.92897287 67.34165994 50.42691592 67.36744091 43.92461741 67.37635398 C40.4824822 67.38156311 37.04069751 67.39378255 33.59867477 67.42292023 C29.75370525 67.45520415 25.90907686 67.45595723 22.06396484 67.45410156 C20.92604492 67.46848267 19.788125 67.48286377 18.61572266 67.49768066 C12.6289505 67.46637683 8.51960962 67.36228616 4 63 C-6.43989717 44.73017995 0 21.04228547 0 0 Z " fill="#CFD2D7" transform="translate(15,366)"/>
<path d="M0 0 C0.72680969 0.00141495 1.45361938 0.0028299 2.20245361 0.00428772 C4.51521994 0.00986833 6.82788812 0.02241721 9.140625 0.03515625 C10.71223818 0.04017376 12.28385289 0.04473623 13.85546875 0.04882812 C17.70055843 0.0598314 21.5455751 0.07708264 25.390625 0.09765625 C25.42502686 0.89010742 25.45942871 1.68255859 25.49487305 2.49902344 C26.28651266 19.56898277 27.82928785 36.0834819 31.07421875 52.890625 C31.26902832 53.92574219 31.46383789 54.96085937 31.66455078 56.02734375 C32.32342687 59.14128764 32.32342687 59.14128764 33.59716797 62.15234375 C34.79277543 65.35999518 35.49754299 67.66748879 35.390625 71.09765625 C32.54308805 75.77385844 28.7128661 79.15365739 24.640625 82.72265625 C23.57211468 83.70725384 22.50696528 84.69551205 21.4453125 85.6875 C19.50635744 87.49725535 17.55093394 89.27496238 15.57128906 91.04150391 C12.82931456 93.62691694 12.46955627 94.53080198 11.94702148 98.28344727 C12.5555386 103.51562281 14.82129235 105.54286007 18.48828125 109.125 C19.11536484 109.75878067 19.74244843 110.39256134 20.38853455 111.04554749 C21.71584205 112.37760738 23.05198691 113.7009122 24.39624023 115.01586914 C26.44683622 117.02898242 28.45741005 119.07670472 30.46679688 121.13085938 C31.76338659 122.42282324 33.06214618 123.71261387 34.36328125 125 C35.26059715 125.91857033 35.26059715 125.91857033 36.17604065 126.85569763 C39.33815975 129.89753439 40.71125477 131.01802932 45.20874023 131.54516602 C48.28575822 131.30386629 48.28575822 131.30386629 50.328125 130.03515625 C52.12647342 126.75581501 51.99586185 124.78960102 51.390625 121.09765625 C49.4891742 118.02502199 46.94855176 115.63148951 44.390625 113.09765625 C43.1959151 111.89131734 42.00196875 110.68422198 40.80859375 109.4765625 C37.35647981 105.99587873 33.87874552 102.54223574 30.390625 99.09765625 C31.88141274 95.97154907 33.42165449 93.79570328 35.890625 91.34765625 C36.4990625 90.7340625 37.1075 90.12046875 37.734375 89.48828125 C39.390625 88.09765625 39.390625 88.09765625 41.390625 88.09765625 C41.64118652 88.70013184 41.89174805 89.30260742 42.14990234 89.92333984 C46.97861171 101.46187483 51.87264896 112.74376919 58.42919922 123.42333984 C61.40820457 128.43353926 61.40820457 128.43353926 61.3203125 131.75390625 C60.27133327 134.39839171 59.10645663 136.93056088 57.828125 139.47265625 C55.70181666 144.04575998 54.55723684 147.09732726 55.390625 152.09765625 C56.37111438 154.1616831 56.37111438 154.1616831 58.390625 155.09765625 C61.34808992 155.68111101 61.34808992 155.68111101 64.390625 155.09765625 C67.59913931 152.62251664 69.43673934 149.61465044 71.390625 146.09765625 C74.61867981 149.12395763 77.40188293 152.30695382 80.140625 155.78515625 C84.96513796 161.89803346 90.01953671 167.87768571 95.65625 173.26171875 C97.390625 175.09765625 97.390625 175.09765625 97.390625 177.09765625 C97.97070312 177.34644531 98.55078125 177.59523438 99.1484375 177.8515625 C101.71301988 179.27682693 103.26933288 180.88739449 105.265625 183.03515625 C111.14837496 189.0430711 117.68014412 194.06028828 124.390625 199.09765625 C124.95942383 199.52723633 125.52822266 199.95681641 126.11425781 200.39941406 C138.72108904 209.85999971 152.18300518 217.77386566 166.39013672 224.58642578 C169.09670029 225.89143809 171.24852336 226.95555461 173.390625 229.09765625 C109.370625 229.09765625 45.350625 229.09765625 -20.609375 229.09765625 C-20.7302841 174.92142203 -20.7302841 174.92142203 -20.75585938 152.25390625 C-20.77367415 136.59013937 -20.79463968 120.92642083 -20.83569336 105.26269531 C-20.86557563 93.85590934 -20.88494525 82.44916251 -20.89164048 71.04233849 C-20.8955547 65.00136033 -20.9047674 58.96049415 -20.92656517 52.91955185 C-20.9469117 47.234798 -20.95321246 41.55020238 -20.94869804 35.86541557 C-20.94952406 33.77805281 -20.95550053 31.6906848 -20.96699142 29.6033535 C-20.98190667 26.75448833 -20.97833198 23.90622141 -20.97013855 21.05734253 C-20.97887707 20.2304838 -20.9876156 19.40362507 -20.99661893 18.55171001 C-20.95329514 12.98247147 -19.97973521 8.75878065 -16.14453125 4.453125 C-10.70783689 0.14126396 -6.77320012 -0.04985587 0 0 Z " fill="#008AE5" transform="translate(35.609375,136.90234375)"/>
<path d="M0 0 C0.76028503 -0.00709439 1.52057007 -0.01418877 2.30389404 -0.02149814 C4.84764388 -0.03907926 7.38986589 -0.02097404 9.93359375 -0.00291443 C11.75871476 -0.00805323 13.58383081 -0.01533421 15.40893555 -0.02459717 C20.36354926 -0.04312438 25.3176254 -0.03016422 30.2722168 -0.01050687 C35.45622389 0.00587 40.64019669 -0.00293193 45.82421875 -0.00802612 C54.53003534 -0.01254815 63.23563715 0.00332958 71.94140625 0.03126526 C82.00771884 0.0633176 92.07364403 0.06330175 102.13998413 0.04605049 C111.82188781 0.03018895 121.50364941 0.03691658 131.18554688 0.0539875 C135.30667908 0.06086167 139.42769751 0.05982178 143.54882812 0.05244255 C148.40150877 0.04478371 153.25374834 0.05689279 158.10635376 0.08429146 C159.88773286 0.09118058 161.66915311 0.09126762 163.45053101 0.08407593 C165.88157608 0.07539207 168.31125657 0.0913178 170.7421875 0.11352539 C171.44792908 0.10528462 172.15367065 0.09704386 172.88079834 0.08855337 C177.6284608 0.16865726 180.03198432 1.27764856 183.37109375 4.62818909 C184.83909966 7.56420091 184.53565016 10.53283743 184.5480957 13.75245667 C184.5546669 14.48598862 184.5612381 15.21952057 184.56800842 15.97528076 C184.58775192 18.40776162 184.59940642 20.8401807 184.609375 23.27272034 C184.61345053 24.10312017 184.61752605 24.93352001 184.62172508 25.78908348 C184.6425905 30.1844241 184.65689005 34.57973346 184.66625977 38.97511292 C184.67732411 43.51484575 184.71172262 48.05408841 184.75143147 52.59364796 C184.7775788 56.08439037 184.78594992 59.57501567 184.78954124 63.0658474 C184.79441226 64.73919166 184.80604095 66.41253052 184.82457924 68.08577919 C184.84893119 70.42949357 184.84801348 72.77193572 184.84106445 75.11573792 C184.86027954 76.1500444 184.86027954 76.1500444 184.87988281 77.20524597 C184.82884727 81.93452698 183.70057992 84.30292117 180.37109375 87.62818909 C177.39519843 89.11613675 174.35945961 88.77258468 171.09622192 88.76863098 C170.3377946 88.7716021 169.57936727 88.77457323 168.7979573 88.77763438 C166.24306078 88.78634287 163.68821099 88.78783143 161.13330078 88.7893219 C159.30700581 88.79394853 157.48071181 88.79897297 155.65441895 88.80436707 C150.68335333 88.81750741 145.71230123 88.82393912 140.74122095 88.82837772 C137.63789213 88.83130561 134.53456703 88.83540985 131.43124008 88.8398819 C121.7285543 88.85356067 112.02587699 88.86322566 102.32318223 88.86708379 C91.10986864 88.87156666 79.89667682 88.88912363 68.68340027 88.91808438 C60.02434319 88.9396747 51.36532044 88.94978664 42.70623672 88.95112491 C37.53055196 88.95217477 32.35498161 88.95812109 27.1793251 88.97594452 C22.31202441 88.99237961 17.44492469 88.99460298 12.5776062 88.98580551 C10.7893406 88.9850327 9.00106439 88.9894098 7.21282578 88.99926376 C4.77495307 89.01191159 2.33779987 89.00614598 -0.10006714 88.99568176 C-0.81076792 89.00373817 -1.52146869 89.01179457 -2.25370586 89.02009511 C-5.28884236 88.98954243 -7.36045685 88.77706693 -10.03695869 87.29272079 C-13.29936695 83.88156446 -12.79489962 79.7237967 -12.82177734 75.29859924 C-12.83404358 74.18345192 -12.83404358 74.18345192 -12.84655762 73.04577637 C-12.87136473 70.58627625 -12.88791381 68.12683358 -12.90234375 65.66725159 C-12.90766743 64.82673626 -12.9129911 63.98622093 -12.9184761 63.12023544 C-12.94518483 58.67302615 -12.96456868 54.22584473 -12.97900391 49.77857971 C-12.99235501 46.09831452 -13.02023172 42.41860224 -13.06103516 38.73854065 C-13.11031842 34.29353827 -13.13511915 29.84903821 -13.14223099 25.40377426 C-13.14894726 23.71087027 -13.16417924 22.01797765 -13.1881218 20.32522964 C-13.21973834 17.95508063 -13.21981669 15.58687246 -13.21240234 13.21656799 C-13.22880768 12.51925064 -13.24521301 11.82193329 -13.26211548 11.10348511 C-13.21649995 7.53677627 -12.75906684 5.79741084 -10.56771278 2.94843197 C-6.98038921 0.11617272 -4.38543179 -0.07354644 0 0 Z " fill="#E44121" transform="translate(280.62890625,310.37181091308594)"/>
<path d="M0 0 C0.95003906 -0.02835938 1.90007812 -0.05671875 2.87890625 -0.0859375 C9.70645169 -0.10514297 9.70645169 -0.10514297 12.984375 2.39453125 C15.08625388 6.70121607 16.19230257 11.02764432 17.25 15.6875 C17.47042969 16.60208984 17.69085938 17.51667969 17.91796875 18.45898438 C19.5 25.11628979 19.5 25.11628979 19.5 27.5 C20.758125 27.726875 22.01625 27.95375 23.3125 28.1875 C28.18146205 29.24730562 32.38008881 31.16013323 36.82421875 33.37890625 C39.94799227 34.68769895 42.08776975 35.45371821 45.5 35.5 C48.3885752 34.19486428 50.91007197 32.44087059 53.5 30.625 C62.39928535 24.48583135 62.39928535 24.48583135 67.5 24.5 C71.68117228 26.34048534 74.57211495 29.3322845 77.75 32.5625 C78.62140625 33.44035156 79.4928125 34.31820312 80.390625 35.22265625 C82.91455333 37.94756406 83.41901154 38.92440343 83.9375 42.609375 C83.41755431 47.23317777 81.95976963 48.97767172 79.18066406 52.55175781 C74.01823665 59.13359708 74.01823665 59.13359708 72.74804688 67.08984375 C74.27906565 72.27115411 76.80198984 76.85319052 79.49023438 81.51367188 C80.81369331 84.11707176 81.26027996 86.60491951 81.5 89.5 C82.15484375 89.60957031 82.8096875 89.71914062 83.484375 89.83203125 C88.68697059 90.73587201 93.85529956 91.74543527 99 92.9375 C99.9796875 93.16308594 100.959375 93.38867188 101.96875 93.62109375 C104.72569908 94.57836774 105.73358065 95.21439765 107.5 97.5 C108.13908587 101.30285053 107.96329513 105.14949037 107.9375 109 C107.95748047 110.05832031 107.97746094 111.11664063 107.99804688 112.20703125 C107.99708008 113.72876953 107.99708008 113.72876953 107.99609375 115.28125 C107.99794678 116.21001953 107.9997998 117.13878906 108.00170898 118.09570312 C107.5 120.5 107.5 120.5 105.76245117 122.24169922 C103.41839928 123.54538363 101.41266951 124.24385201 98.8046875 124.8515625 C97.92425781 125.06296875 97.04382813 125.274375 96.13671875 125.4921875 C94.76966797 125.80542969 94.76966797 125.80542969 93.375 126.125 C91.55944722 126.55278803 89.74432009 126.98238779 87.9296875 127.4140625 C87.12772949 127.5992041 86.32577148 127.7843457 85.49951172 127.97509766 C83.44770478 128.44054283 83.44770478 128.44054283 81.5 129.5 C80.82561494 131.28756214 80.2354208 133.10721139 79.6875 134.9375 C78.07670415 140.08837191 76.0352356 144.52997966 73.2578125 149.1484375 C72.15735837 152.56324876 73.06300298 154.25360109 74.5 157.5 C75.80968446 159.80333054 77.13348095 162.02594531 78.5625 164.25 C84.2450551 173.24151196 84.2450551 173.24151196 83.5 178.5 C81.63330469 181.29133424 79.34052174 183.54258377 76.9375 185.875 C76.02387695 186.83599609 76.02387695 186.83599609 75.09179688 187.81640625 C72.12432192 190.76189991 70.2292191 192.33171867 66.09765625 193.28515625 C61.89011895 192.36689892 59.37376739 190.68245568 55.89013672 188.23095703 C49.18229003 183.27654184 49.18229003 183.27654184 41.30371094 181.61767578 C36.53922903 183.01587405 32.63113943 185.82341745 28.5 188.5 C25.64453125 189.39453125 25.64453125 189.39453125 23.1875 189.9375 C21.12079209 190.45066949 21.12079209 190.45066949 19.5 191.5 C18.10551543 194.26683446 17.86025353 196.36064777 17.5 199.5 C17.17 199.5 16.84 199.5 16.5 199.5 C16.1946543 192.66930356 15.98518142 185.84037406 15.84082031 179.00439453 C15.7806273 176.6817857 15.69884496 174.35962879 15.59472656 172.03857422 C14.77146958 153.20858843 14.77146958 153.20858843 17.64505005 148.70571899 C20.77167889 145.62694774 24.53176931 144.19126701 28.5 142.5 C37.39661283 134.69954894 42.55566453 123.72543111 43.75390625 112.01953125 C44.26233234 100.65374792 40.41826559 89.49836771 33.5 80.5 C25.62225626 71.91159607 15.4512329 66.21007895 3.73828125 65.1640625 C-10.2806563 65.02457058 -20.73918852 67.98016678 -31.5 77.5 C-39.41868282 85.40371367 -44.03705711 96.31124131 -44.55224609 107.48974609 C-44.49383166 110.85539999 -44.04551306 114.02245688 -43.50390625 117.34375 C-43.31771729 118.50068359 -43.13152832 119.65761719 -42.93969727 120.84960938 C-42.79459717 121.72423828 -42.64949707 122.59886719 -42.5 123.5 C-50.51467964 123.56953428 -58.52923307 123.6228284 -66.54413986 123.65543652 C-70.26586314 123.67108742 -73.98737993 123.69231478 -77.70898438 123.72631836 C-81.30107908 123.75893295 -84.89297525 123.77685734 -88.4852066 123.78463173 C-89.85514704 123.79017152 -91.22507671 123.80098952 -92.59493256 123.81719017 C-94.51467783 123.83898955 -96.43462318 123.84022562 -98.35449219 123.84057617 C-99.44703308 123.84723801 -100.53957397 123.85389984 -101.66522217 123.86076355 C-104.85696876 123.45457093 -106.22857074 122.74622272 -108.5 120.5 C-109.00170898 118.09570312 -109.00170898 118.09570312 -108.99609375 115.28125 C-108.99673828 114.26675781 -108.99738281 113.25226563 -108.99804688 112.20703125 C-108.97806641 111.14871094 -108.95808594 110.09039062 -108.9375 109 C-108.94458984 107.94167969 -108.95167969 106.88335937 -108.95898438 105.79296875 C-108.89524519 98.07562393 -108.89524519 98.07562393 -107.296875 95.74780273 C-104.98980934 94.14570863 -103.08159604 93.79389601 -100.31640625 93.31640625 C-89.17595616 91.70683286 -89.17595616 91.70683286 -80.26953125 85.79296875 C-79.356059 82.68556752 -78.93092054 79.70572661 -78.5 76.5 C-77.24600502 73.79225863 -75.82881814 71.24865361 -74.35546875 68.65625 C-73.30920504 66.01909215 -73.62347737 65.15476946 -74.5 62.5 C-75.52197115 60.54343208 -75.52197115 60.54343208 -76.78515625 58.6015625 C-77.23310547 57.87453125 -77.68105469 57.1475 -78.14257812 56.3984375 C-79.08678696 54.88666435 -80.0372924 53.37880513 -80.99414062 51.875 C-83.57305898 47.66239454 -85.4269788 44.59838338 -84.5 39.5 C-81.13774571 33.71605773 -74.46716384 27.47853356 -68.5 24.5 C-62.00915377 24.49075378 -56.93732409 28.68071784 -51.68945312 32.08203125 C-47.55423295 34.76242626 -47.55423295 34.76242626 -42.8125 35.45703125 C-40.19752093 34.37481863 -37.61668574 33.28343702 -35.0625 32.0625 C-25.25180636 27.5 -25.25180636 27.5 -19.5 27.5 C-19.4175 26.324375 -19.335 25.14875 -19.25 23.9375 C-18.73809155 19.41684368 -17.79153773 15.03317378 -16.6875 10.625 C-16.37167969 9.34882813 -16.05585938 8.07265625 -15.73046875 6.7578125 C-12.88036808 -0.78816831 -7.03882851 -0.0191013 0 0 Z " fill="#FF4722" transform="translate(382.5,14.5)"/>
<path d="M0 0 C5.99384385 -0.03368929 11.98772593 -0.05802904 17.98162365 -0.07986069 C22.4200383 -0.09605508 26.85834294 -0.11598121 31.29668617 -0.14621735 C35.32744787 -0.17304092 39.35798347 -0.18558956 43.38883209 -0.18599701 C44.81047805 -0.18847636 46.23212672 -0.19598528 47.65371323 -0.20922089 C49.54625809 -0.22614128 51.43895279 -0.2226921 53.33156776 -0.21811676 C54.36979683 -0.22176239 55.40802589 -0.22540802 56.47771645 -0.22916412 C60.61883776 0.29100844 63.98730763 1.81646933 67.04787636 4.6734848 C78.65675518 19.85432634 71.40334511 19.97711633 71.40334511 52.13832855 C-14.06665489 52.13832855 -99.53665489 52.13832855 -187.59665489 52.13832855 C-187.59665489 11.13832855 -187.59665489 11.13832855 -183.59665489 5.13832855 C-178.04279199 -0.23470765 -171.58253929 0.56353937 -164.3112545 0.59243011 C-162.94922592 0.58369145 -161.58720757 0.57321243 -160.22520447 0.56113815 C-156.512557 0.53323035 -152.80024172 0.52992245 -149.08750463 0.53087425 C-145.13669961 0.52762931 -141.18603982 0.50160584 -137.23531151 0.47829437 C-129.62561739 0.43698894 -122.01601124 0.41656395 -114.40622109 0.40386772 C-105.68518456 0.38866499 -96.96426233 0.3537853 -88.24329042 0.31790781 C-73.63470227 0.2584105 -59.02613013 0.21604522 -44.41745567 0.18520355 C-29.6113838 0.15391027 -14.8058573 0.08796314 0 0 Z " fill="#FEC200" transform="translate(424.5966548919678,227.8616714477539)"/>
<path d="M0 0 C28.30274205 -0.0934211 56.605461 -0.16396839 84.90832615 -0.20724869 C98.04969498 -0.22787818 111.19096803 -0.25600635 124.33227539 -0.30175781 C135.78558301 -0.34161352 147.23882127 -0.36743 158.69219631 -0.37635398 C164.75727768 -0.38157082 170.82216062 -0.3938407 176.88717842 -0.42292023 C182.59577005 -0.45006908 188.30408149 -0.45844594 194.01273155 -0.45243073 C196.10774381 -0.45353119 198.20276543 -0.46148804 200.29772186 -0.4768219 C203.15952346 -0.49674121 206.02026899 -0.49193183 208.88209534 -0.48101807 C209.70993218 -0.49266943 210.53776901 -0.5043208 211.39069182 -0.51632524 C217.04889672 -0.45805287 220.37132368 0.68901704 225 4 C228.90111037 8.68788075 229.57438414 14.21544279 229.45410156 20.16015625 C229.4545837 20.9441832 229.45506584 21.72821014 229.45556259 22.53599548 C229.45260402 25.0453108 229.42227229 27.55340056 229.390625 30.0625 C229.3847354 31.62304107 229.3806599 33.18359006 229.37841797 34.74414062 C229.35754441 40.49621516 229.30169921 46.24811993 229.25 52 C229.1675 64.87 229.085 77.74 229 91 C179.83 91 130.66 91 80 91 C80 90.67 80 90.34 80 90 C120.26 90 160.52 90 202 90 C200.02 85.05 200.02 85.05 198 80 C197.51898193 76.93722534 197.51898193 76.93722534 197.54589844 74.36669922 C197.54620056 73.38643768 197.54650269 72.40617615 197.54681396 71.39620972 C197.56745911 70.37600739 197.58810425 69.35580505 197.609375 68.3046875 C197.61503479 67.23123077 197.62069458 66.15777405 197.62652588 65.05178833 C197.64872589 61.65905125 197.69889203 58.2674121 197.75 54.875 C197.77008613 52.5599112 197.78833318 50.24480567 197.8046875 47.9296875 C197.84853669 42.28609048 197.91528255 36.64312371 198 31 C197.10731478 31.00460896 196.21462955 31.00921793 195.29489326 31.01396656 C173.55219392 31.12449234 151.80954314 31.20717928 130.06662178 31.25906086 C119.55179873 31.2848187 109.03716345 31.31992299 98.52246094 31.37719727 C89.35552335 31.42710628 80.18872179 31.4593086 71.0216521 31.47044247 C66.16979241 31.47694852 61.31832179 31.49218909 56.46658707 31.52865028 C51.89469041 31.5627283 47.32334103 31.57302923 42.75132942 31.56553841 C41.07843992 31.5669077 39.40553106 31.57676978 37.73275185 31.59602737 C28.49749143 31.69708199 20.90630523 31.39011611 13 26 C12.42364367 25.62005544 11.84728733 25.24011087 11.25346565 24.84865284 C5.50850752 20.58880561 1.61471085 13.89921908 0 7 C-0.02721625 4.6668254 -0.03022911 2.33313751 0 0 Z " fill="#59BCFC" transform="translate(170,138)"/>
<path d="M0 0 C0.36351562 1.51980469 0.36351562 1.51980469 0.734375 3.0703125 C1.07230396 4.42202833 1.41088024 5.77358243 1.75 7.125 C1.90726562 7.79015625 2.06453125 8.4553125 2.2265625 9.140625 C3.41020288 13.78413728 5.28302437 17.00444761 8 21 C8 23.33333333 8 25.66666667 8 28 C9.47993156 30.56338689 9.47993156 30.56338689 12 32 C14.95575523 32.30789117 17.25702692 32.19666934 20.125 31.4375 C22.42299377 30.90130145 23.72597081 31.4259752 26 32 C28.88884384 32.1040493 31.75415603 32.15479272 34.64324951 32.15821838 C35.52463097 32.16315636 36.40601243 32.16809434 37.31410241 32.17318195 C40.27287626 32.18856253 43.2316284 32.19691912 46.19042969 32.20532227 C48.30922131 32.21490035 50.42801101 32.22491039 52.54679871 32.23532104 C58.30463044 32.26238374 64.06247039 32.28338595 69.82033062 32.30332303 C75.8354969 32.32517414 81.85063784 32.35256711 87.86578369 32.37937927 C99.2589533 32.42931798 110.65213697 32.47425246 122.0453341 32.51740164 C135.0149671 32.56676393 147.98457468 32.6216858 160.9541831 32.67708123 C187.63609853 32.79091937 214.3180386 32.89755723 241 33 C241 38.94 241 44.88 241 51 C155.53 51 70.06 51 -18 51 C-18 10 -18 10 -14 4 C-9.20232338 -0.14344799 -6.06966268 -0.41859743 0 0 Z " fill="#E5AF00" transform="translate(255,229)"/>
<path d="M0 0 C1.21046494 -0.00058411 2.42092987 -0.00116821 3.66807556 -0.00177002 C6.96960641 0.00053099 10.27012328 0.02051969 13.57147479 0.04852581 C17.02809299 0.07361725 20.48472629 0.07588753 23.94142151 0.08062744 C30.4791051 0.09303462 37.01651951 0.12582524 43.55408484 0.1660254 C51.00025843 0.2108138 58.44644523 0.23274785 65.8927201 0.25280714 C81.2028056 0.2945602 96.5126229 0.36486781 111.82250977 0.45410156 C111.84438354 1.31575928 111.84438354 1.31575928 111.86669922 2.19482422 C111.94164701 4.82355852 112.0381497 7.45108708 112.13500977 10.07910156 C112.15756836 10.98273438 112.18012695 11.88636719 112.20336914 12.81738281 C112.41385059 18.06028425 112.89814449 21.92496212 115.82250977 26.45410156 C117.79865002 28.14477541 117.79865002 28.14477541 120.01000977 29.26660156 C121.29013896 29.97932214 122.56403808 30.70380134 123.82250977 31.45410156 C123.82250977 31.78410156 123.82250977 32.11410156 123.82250977 32.45410156 C75.31250977 32.45410156 26.80250977 32.45410156 -23.17749023 32.45410156 C-23.17749023 11.45410156 -23.17749023 11.45410156 -19.17749023 4.45410156 C-13.18205035 -0.37834279 -7.47996412 -0.09483188 0 0 Z " fill="#E5E8ED" transform="translate(125.177490234375,464.5458984375)"/>
<path d="M0 0 C0.33 0 0.66 0 1 0 C1 32.67 1 65.34 1 99 C-28.04 99 -57.08 99 -87 99 C-87 88.44 -87 77.88 -87 67 C-58.29 67 -29.58 67 0 67 C0 44.89 0 22.78 0 0 Z " fill="#AAB2BC" transform="translate(236,366)"/>
<path d="M0 0 C0 23.1 0 46.2 0 70 C-14.89743695 64.27021656 -14.89743695 64.27021656 -20.87109375 61.46875 C-21.54912048 61.15550781 -22.22714722 60.84226562 -22.92572021 60.51953125 C-24.36123868 59.85632392 -25.79601762 59.19151366 -27.23007202 58.52514648 C-39.81079611 52.68256172 -52.4489461 46.98997975 -65.1875 41.5 C-65.84418671 41.21697021 -66.50087341 40.93394043 -67.17745972 40.64233398 C-70.78282141 39.08984748 -74.39034323 37.54247188 -78 36 C-75.84729433 33.62748561 -73.91482784 32.31351056 -70.98876953 31.02978516 C-70.18071869 30.67113373 -69.37266785 30.3124823 -68.54013062 29.94296265 C-67.66321564 29.5621756 -66.78630066 29.18138855 -65.8828125 28.7890625 C-64.96553375 28.38402496 -64.048255 27.97898743 -63.10317993 27.56167603 C-60.11323996 26.24301503 -57.11918298 24.93399431 -54.125 23.625 C-52.0781288 22.72436363 -50.03158011 21.82299395 -47.98535156 20.92089844 C-44.91108225 19.56577604 -41.83657696 18.21121856 -38.76086426 16.859375 C-32.69664685 14.19365579 -26.64203405 11.50816202 -20.6015625 8.7890625 C-19.91389801 8.47953644 -19.22623352 8.17001038 -18.51773071 7.85110474 C-15.38332252 6.43903453 -12.25023926 5.02406972 -9.11767578 3.60791016 C-8.04243652 3.12370605 -6.96719727 2.63950195 -5.859375 2.140625 C-4.47443848 1.51462402 -4.47443848 1.51462402 -3.06152344 0.87597656 C-1 0 -1 0 0 0 Z " fill="#FE4722" transform="translate(464,320)"/>
<path d="M0 0 C50.49 0 100.98 0 153 0 C150.17281348 2.12038989 148.35317316 3.43837067 145.27416992 4.77075195 C144.55253159 5.08613922 143.83089325 5.40152649 143.08738708 5.72647095 C142.30960403 6.06036835 141.53182098 6.39426575 140.73046875 6.73828125 C139.49968346 7.27562393 139.49968346 7.27562393 138.24403381 7.82382202 C133.70501516 9.80306587 129.15457736 11.75527702 124.60253906 13.7043457 C115.95814435 17.42119093 107.43447682 21.18783741 99.12890625 25.6171875 C97.12769151 26.64882174 95.12381855 27.67509249 93.11904907 28.69979858 C91.89559496 29.3463345 90.68601496 30.02001408 89.49398804 30.72280884 C84.76493542 33.50614377 80.28589788 35.72427268 74.71026611 34.49530029 C69.1799228 32.6472674 64.01845941 30.05097096 58.83056641 27.41152954 C54.13099263 25.06797484 49.30647694 23.01634528 44.4921875 20.921875 C42.558974 20.06457572 40.62668224 19.20519496 38.6953125 18.34375 C34.7767065 16.59745772 30.85752901 14.8524709 26.9375 13.109375 C17.94257412 9.10748391 8.94862603 5.10467845 0 1 C0 0.67 0 0.34 0 0 Z " fill="#FE4722" transform="translate(290,312)"/>
<path d="M0 0 C3.05487995 1.10836338 5.97896587 2.45692834 8.921875 3.83203125 C9.77219299 4.2203009 10.62251099 4.60857056 11.49859619 5.00860596 C14.25294774 6.26829086 17.00143348 7.54024885 19.75 8.8125 C22.58964815 10.11570966 25.43060913 11.41602798 28.27160645 12.71629333 C30.16167655 13.58170145 32.05124519 14.44820562 33.94030762 15.31581116 C39.51005922 17.87189481 45.09330928 20.39247184 50.703125 22.859375 C51.34199646 23.14056686 51.98086792 23.42175873 52.63909912 23.71147156 C55.54166489 24.98719026 58.44681019 26.25673561 61.35449219 27.52075195 C62.35125977 27.95863037 63.34802734 28.39650879 64.375 28.84765625 C65.65503906 29.4046521 65.65503906 29.4046521 66.9609375 29.97290039 C69 31 69 31 71 33 C55.49251459 33.23392751 39.98516167 33.41010106 24.47632599 33.51812172 C17.27463188 33.56961892 10.07403592 33.63978234 2.87304688 33.75439453 C-3.40575552 33.85428113 -9.68376255 33.91863093 -15.96333742 33.94088495 C-19.28690672 33.95388948 -22.60767939 33.98958301 -25.9306488 34.05730057 C-29.64718894 34.13001956 -33.35903365 34.13988691 -37.07617188 34.13525391 C-38.16949829 34.17120667 -39.26282471 34.20715942 -40.38928223 34.24420166 C-45.17542918 34.17974225 -47.89781961 34.00946461 -51.51405334 30.69742966 C-53.51918264 28.20953034 -55.3178617 25.71455767 -57 23 C-54.65209282 20.55126529 -52.68042467 19.21006912 -49.56030273 17.83935547 C-48.66605087 17.44239471 -47.77179901 17.04543396 -46.85044861 16.63644409 C-45.88788651 16.21758942 -44.9253244 15.79873474 -43.93359375 15.3671875 C-42.94375992 14.92988312 -41.95392609 14.49257874 -40.93409729 14.04202271 C-37.77141094 12.64644622 -34.60458742 11.26055572 -31.4375 9.875 C-29.29984406 8.93424369 -27.16247068 7.99284504 -25.02539062 7.05078125 C-20.32914726 4.98088456 -15.63016665 2.91733937 -10.92869568 0.85934448 C-6.85855664 -0.95413577 -4.36393705 -1.05505149 0 0 Z " fill="#FE4722" transform="translate(371,365)"/>
<path d="M0 0 C0.79921875 0.03609375 1.5984375 0.0721875 2.421875 0.109375 C3.02515625 0.15578125 3.6284375 0.2021875 4.25 0.25 C4.45753906 1.32894531 4.66507812 2.40789062 4.87890625 3.51953125 C9.71588797 27.50425156 19.48331976 52.5672159 35.18359375 71.62890625 C36.25 73.25 36.25 73.25 36.25 76.25 C25.855 80.705 25.855 80.705 15.25 85.25 C25.48 85.58 35.71 85.91 46.25 86.25 C46.25 86.58 46.25 86.91 46.25 87.25 C39.2025442 87.32602812 32.15519406 87.37859061 25.10742188 87.41479492 C22.70959521 87.42988682 20.31179617 87.4503625 17.9140625 87.47631836 C14.46868067 87.51268311 11.02366363 87.52972248 7.578125 87.54296875 C6.50508118 87.55845261 5.43203735 87.57393646 4.32647705 87.58988953 C3.32574158 87.59011612 2.3250061 87.59034271 1.29394531 87.59057617 C0.41458313 87.59723801 -0.46477905 87.60389984 -1.37078857 87.61076355 C-4.28473406 87.16891744 -5.62992641 86.27174237 -7.75 84.25 C-8.92075763 80.73772711 -8.91302003 77.55971326 -8.92700195 73.90454102 C-8.93357315 73.15950317 -8.94014435 72.41446533 -8.94691467 71.64685059 C-8.96661868 69.18253477 -8.97830172 66.71827972 -8.98828125 64.25390625 C-8.99235678 63.41214277 -8.9964323 62.5703793 -9.00063133 61.70310783 C-9.0214764 57.25056072 -9.03578674 52.79804432 -9.04516602 48.34545898 C-9.05624724 43.74400504 -9.09067097 39.14303245 -9.13033772 34.541749 C-9.15645651 31.00472605 -9.16485344 27.46781885 -9.16844749 23.93070793 C-9.17332315 22.23420892 -9.18496496 20.53771542 -9.20348549 18.8413105 C-9.22778461 16.46876674 -9.22692983 14.09748311 -9.2199707 11.72485352 C-9.23278076 11.02394089 -9.24559082 10.32302826 -9.25878906 9.60087585 C-9.22264166 6.22210308 -8.95632319 4.51781213 -6.86808777 1.80723572 C-4.33685703 -0.05374614 -3.09977919 -0.18233995 0 0 Z " fill="#E5401F" transform="translate(276.75,311.75)"/>
<path d="M0 0 C2.8125 2.125 2.8125 2.125 5 5 C5.45825667 9.54499831 4.64080825 12.46266096 2.61328125 16.5078125 C2.09386963 17.56202393 1.57445801 18.61623535 1.03930664 19.70239258 C0.46946045 20.83185303 -0.10038574 21.96131348 -0.6875 23.125 C-1.58697271 24.94287024 -2.48171416 26.76301853 -3.37611389 28.58338928 C-3.9939557 29.84062564 -4.61306212 31.09724127 -5.23338318 32.35325623 C-8.40775658 38.79049469 -11.43159523 45.29507188 -14.4375 51.8125 C-15.51290766 54.13807317 -16.58842991 56.46359336 -17.6640625 58.7890625 C-18.20579102 59.96114258 -18.74751953 61.13322266 -19.30566406 62.34082031 C-22.88215885 70.0712023 -26.48582778 77.78908423 -30.09887695 85.50244141 C-32.59993499 90.84360975 -35.09447288 96.18627563 -37.51953125 101.5625 C-37.88328857 102.36083252 -38.2470459 103.15916504 -38.62182617 103.98168945 C-39.26242626 105.39026131 -39.89494949 106.80255326 -40.5168457 108.21948242 C-42.1381737 111.76136566 -43.5565075 114.08089944 -47 116 C-50.61752119 116.52755517 -52.30182885 116.45932313 -55.375 114.4375 C-57.55127264 111.17309104 -57.6727877 108.76164349 -57 105 C-55.40557226 100.67744175 -53.39265542 96.5762067 -51.375 92.4375 C-50.78302236 91.1977711 -50.19247518 89.95735826 -49.60327148 88.71630859 C-48.36720442 86.1161188 -47.12466318 83.51917315 -45.87744141 80.92431641 C-43.17915385 75.29933232 -40.55527829 69.63984222 -37.92636108 63.98220825 C-36.47587217 60.86381337 -35.01873282 57.74852803 -33.5625 54.6328125 C-31.43387777 50.07652858 -29.31002226 45.5180668 -27.19166565 40.95700073 C-25.94834599 38.28025619 -24.70356287 35.60419327 -23.45870972 32.92816162 C-22.59811146 31.07661673 -21.73956305 29.2241195 -20.88110352 27.37158203 C-19.26887637 23.90716835 -17.6390271 20.45180952 -16 17 C-15.70277039 16.36690918 -15.40554077 15.73381836 -15.0993042 15.08154297 C-14.19038131 13.15310626 -13.26699061 11.23223057 -12.33984375 9.3125 C-11.79577881 8.17425781 -11.25171387 7.03601563 -10.69116211 5.86328125 C-8.05833452 1.40568028 -5.31982092 -1.03801384 0 0 Z " fill="#FAFDFE" transform="translate(147,177)"/>
<path d="M0 0 C1.14506516 -0.01073296 1.14506516 -0.01073296 2.31326294 -0.02168274 C4.82201033 -0.03851204 7.3289562 -0.0192048 9.83764648 0.00219727 C11.58829394 0.00136811 13.33894131 -0.00109302 15.08958435 -0.00511169 C18.75218233 -0.00796561 22.4141674 0.00669289 26.07666016 0.03417969 C30.76661833 0.06828736 35.45548273 0.06223222 40.14549351 0.04351711 C43.75812365 0.03293981 47.37050006 0.04189108 50.98310661 0.05690193 C52.71223128 0.06207717 54.44138251 0.06160993 56.17050362 0.05535698 C58.58820559 0.04989476 61.00435057 0.07030898 63.421875 0.09765625 C64.13318069 0.09113037 64.84448639 0.08460449 65.5773468 0.07788086 C70.34600106 0.169413 72.80615358 1.2375937 76.14624023 4.63110352 C76.81030273 6.63110352 76.81030273 6.63110352 76.77124023 8.63110352 C76.79057617 9.62110352 76.79057617 9.62110352 76.81030273 10.63110352 C75.75640259 13.80520277 73.92161841 14.83604351 71.14624023 16.63110352 C68.39392876 17.01820237 66.04495594 17.17940724 63.29833984 17.14868164 C62.52374924 17.15569092 61.74915863 17.1627002 60.95109558 17.16992188 C58.39988988 17.1874759 55.84980025 17.17589015 53.29858398 17.16235352 C51.52169075 17.16504892 49.74479896 17.16893174 47.96791077 17.1739502 C44.24815801 17.17984147 40.52879 17.17129335 36.80908203 17.15258789 C32.04168347 17.12978176 27.27518484 17.14293399 22.50781918 17.16687775 C18.8403495 17.18133167 15.17309324 17.17673193 11.50561714 17.16636658 C9.74774634 17.16369902 7.98985613 17.16697009 6.23200798 17.17628479 C3.77573169 17.18644582 1.32091375 17.17095792 -1.13525391 17.14868164 C-1.86107666 17.15677856 -2.58689941 17.16487549 -3.3347168 17.17321777 C-6.70264846 17.11663808 -8.54339446 16.86496274 -11.26585388 14.81359863 C-13.56652732 11.6514411 -13.99059528 9.53091582 -13.85375977 5.63110352 C-9.54164945 1.03415252 -6.3128843 -0.10406518 0 0 Z " fill="#E1E1E1" transform="translate(273.853759765625,423.368896484375)"/>
<path d="M0 0 C2.68544278 1.80243806 4.86009404 4.0430245 7.11328125 6.3515625 C7.76830124 7.00321381 8.42332123 7.65486511 9.09819031 8.32626343 C10.4777989 9.70617063 11.84996017 11.09355839 13.21508789 12.48779297 C15.30358015 14.61591091 17.41976416 16.7131842 19.54101562 18.80859375 C20.87936391 20.15450242 22.21601155 21.50210478 23.55078125 22.8515625 C24.18301102 23.47680817 24.81524078 24.10205383 25.46662903 24.74624634 C28.10179098 27.46750499 29.80949417 29.49249536 31.15307617 33.07177734 C30.82014831 39.44041647 25.52192286 43.76812495 21.2109375 48.01953125 C20.66643951 48.56357101 20.12194153 49.10761078 19.5609436 49.6681366 C18.41865211 50.80742675 17.2739511 51.94430573 16.12695312 53.07885742 C14.36784591 54.81957932 12.61700142 56.56830066 10.8671875 58.31835938 C9.75307707 59.42755853 8.63850986 60.53629912 7.5234375 61.64453125 C6.99946381 62.16739212 6.47549011 62.69025299 5.93563843 63.22895813 C1.21534964 67.88746763 1.21534964 67.88746763 -3.375 68.3125 C-7 68 -7 68 -9.4375 66.4375 C-11.60476162 63.05657187 -11.42623328 60.96583414 -11 57 C-8.99633789 54.2175293 -8.99633789 54.2175293 -6.22265625 51.57421875 C-5.73671494 51.10055374 -5.25077362 50.62688873 -4.75010681 50.13887024 C-3.20331086 48.63764721 -1.63430913 47.16247124 -0.0625 45.6875 C1.50020059 44.18968165 3.05801311 42.68695186 4.61439514 41.18257141 C6.02392181 39.82520139 7.44516603 38.48003068 8.86694336 37.13549805 C11.03839975 35.18627143 11.03839975 35.18627143 12 33 C11.42854248 32.75378906 10.85708496 32.50757813 10.26831055 32.25390625 C7.62376061 30.79201749 5.83720252 29.07971414 3.70703125 26.9375 C2.91232422 26.14085937 2.11761719 25.34421875 1.29882812 24.5234375 C0.0680957 23.27433594 0.0680957 23.27433594 -1.1875 22 C-2.01958984 21.16726562 -2.85167969 20.33453125 -3.70898438 19.4765625 C-10.85836169 12.27474476 -10.85836169 12.27474476 -11.375 7.625 C-11 4 -11 4 -8.875 1.5625 C-5.38611966 -0.33363062 -3.92894386 -0.5952322 0 0 Z " fill="#F9FCFF" transform="translate(164,201)"/>
<path d="M0 0 C1.9375 1.0625 1.9375 1.0625 3 3 C3.70315007 6.34091301 3.92463081 7.79454811 3 11 C-0.08427728 15.09799347 -3.76197191 18.51523556 -7.5 22 C-8.5135367 22.97337098 -9.52527711 23.94861605 -10.53515625 24.92578125 C-13.00639657 27.30287909 -15.49431317 29.65932801 -18 32 C-16.52028789 35.44893844 -14.57640468 37.64482454 -11.90234375 40.2578125 C-11.10119141 41.04800781 -10.30003906 41.83820313 -9.47460938 42.65234375 C-8.63736328 43.46832031 -7.80011719 44.28429687 -6.9375 45.125 C-5.27777378 46.75038706 -3.62011253 48.37788627 -1.96484375 50.0078125 C-1.2287085 50.72598145 -0.49257324 51.44415039 0.26586914 52.18408203 C2.71324463 54.74688351 2.97801418 55.76255315 3.3125 59.375 C3 63 3 63 1.4375 65.4375 C-2.01279872 67.64922995 -3.94114986 67.52590099 -8 67 C-10.77431387 65.25104736 -12.9606754 63.02123644 -15.24609375 60.68359375 C-15.90207047 60.03431412 -16.55804718 59.38503448 -17.23390198 58.71607971 C-18.61304034 57.34169463 -19.98341871 55.95847014 -21.34545898 54.56713867 C-23.4309699 52.44414746 -25.55117957 50.36108211 -27.67773438 48.27929688 C-29.01527096 46.93713445 -30.35063438 45.59280211 -31.68359375 44.24609375 C-32.63497475 43.31596718 -32.63497475 43.31596718 -33.60557556 42.36705017 C-36.62551525 39.23183015 -37.89391963 37.69316153 -38.56933594 33.27978516 C-37.98287727 29.90136073 -37.56035236 28.67567468 -35.20703125 26.27734375 C-34.56717285 25.60944824 -33.92731445 24.94155273 -33.26806641 24.25341797 C-32.51960449 23.50979004 -31.77114258 22.76616211 -31 22 C-30.13938965 21.11586426 -29.2787793 20.23172852 -28.39208984 19.32080078 C-26.00880428 16.87754716 -23.60099008 14.4602438 -21.18237305 12.05200195 C-19.66921334 10.54427904 -18.16157115 9.03118241 -16.65429688 7.51757812 C-15.69042526 6.55436608 -14.72624416 5.5914636 -13.76171875 4.62890625 C-12.4617395 3.3306189 -12.4617395 3.3306189 -11.13549805 2.00610352 C-7.29613593 -1.60062319 -5.0751564 -1.06845398 0 0 Z " fill="#FAFDFE" transform="translate(85,202)"/>
<path d="M0 0 C1.19092758 -0.01051392 1.19092758 -0.01051392 2.40591431 -0.02124023 C5.02747689 -0.03882973 7.6479579 -0.02719461 10.26953125 -0.01367188 C12.09269416 -0.01636653 13.91585568 -0.02024872 15.73901367 -0.02526855 C19.55889578 -0.03116488 23.3784036 -0.02259641 27.19824219 -0.00390625 C32.09457694 0.01888349 36.9900347 0.00576111 41.88633728 -0.01819611 C45.65074267 -0.03265052 49.41494015 -0.02804976 53.17935181 -0.01768494 C54.98467106 -0.01501666 56.79000919 -0.01829097 58.5953064 -0.02760315 C61.11873367 -0.03776305 63.64074099 -0.02227675 66.1640625 0 C67.28320541 -0.01214539 67.28320541 -0.01214539 68.42495728 -0.02453613 C71.84262146 0.0313578 73.75789264 0.27858421 76.54174805 2.33117676 C78.81717034 5.56109345 78.70043851 7.66971075 78.08203125 11.51757812 C75.26890597 14.52289083 73.58029138 15.44643939 69.47729492 16.03224182 C68.06843466 16.05888795 66.6590547 16.06375728 65.25 16.05102539 C64.09052353 16.06394875 64.09052353 16.06394875 62.90762329 16.07713318 C60.36124867 16.09977253 57.81597633 16.09305897 55.26953125 16.08398438 C53.49503249 16.0892206 51.72053651 16.09549707 49.94604492 16.10276794 C46.23049809 16.11316814 42.51533434 16.10861583 38.79980469 16.09399414 C34.04133652 16.07679976 29.28407511 16.10031102 24.52574158 16.13548374 C20.86250833 16.15745613 17.19956396 16.15601682 13.5362854 16.14771843 C11.78201981 16.14689895 10.02773301 16.15376173 8.27352905 16.16848946 C5.81962114 16.18593497 3.36788355 16.17139599 0.9140625 16.14868164 C0.19183502 16.16037384 -0.53039246 16.17206604 -1.27450562 16.18411255 C-5.14635578 16.11128896 -6.8031594 15.60882563 -9.87231445 13.16954041 C-11.91796875 10.51757812 -11.91796875 10.51757812 -12.48046875 7.45507812 C-11.13220014 0.41411985 -6.30688463 -0.06844483 0 0 Z " fill="#FEFEFE" transform="translate(393.91796875,425.482421875)"/>
<path d="M0 0 C12.72912208 5.12637218 25.25530095 10.64135116 37.75 16.3125 C40.43709852 17.52975949 43.12456751 18.74618971 45.81256104 19.96147156 C47.46593493 20.70921839 49.11875959 21.45818131 50.77093506 22.20857239 C54.484534 23.8902357 58.1956581 25.53048527 62 27 C62 27.66 62 28.32 62 29 C57.14659814 31.24849456 52.29017516 33.49028298 47.4309082 35.72607422 C45.78033369 36.48663465 44.13058016 37.24897955 42.48168945 38.01318359 C40.10324416 39.11512714 37.72186148 40.21049165 35.33984375 41.3046875 C34.61039047 41.6443454 33.88093719 41.9840033 33.12937927 42.33395386 C28.81033983 44.30893097 24.60012021 45.81236139 20 47 C14.53412608 37.72593523 9.50311526 28.44528814 5.5 18.4375 C5.01176758 17.22658691 5.01176758 17.22658691 4.51367188 15.99121094 C2.46940658 10.72429811 1.10693091 5.54018923 0 0 Z " fill="#FE4722" transform="translate(284,327)"/>
<path d="M0 0 C1.3756311 -0.00786278 1.3756311 -0.00786278 2.77905273 -0.0158844 C4.71564726 -0.02230031 6.65228078 -0.02097318 8.58886719 -0.01245117 C11.5521372 -0.00393603 14.51348265 -0.03271638 17.4765625 -0.06445312 C19.35937442 -0.06606512 21.24218976 -0.06548764 23.125 -0.0625 C24.45325806 -0.07935097 24.45325806 -0.07935097 25.80834961 -0.09654236 C31.91170555 -0.02736495 31.91170555 -0.02736495 35.12109375 2.24584961 C37.24452118 5.46875496 37.10099661 7.66411749 36.5625 11.43359375 C35.13476562 13.61694336 35.13476562 13.61694336 32.5625 15.43359375 C29.34664472 16.04253664 26.1717568 16.01784975 22.90625 16 C21.96696655 16.00619858 21.02768311 16.01239716 20.05993652 16.01878357 C18.07626379 16.02587989 16.09253148 16.02271101 14.10888672 16.01000977 C11.07277981 15.99614071 8.03975297 16.0302206 5.00390625 16.06835938 C3.07552008 16.06931055 1.14713005 16.06745183 -0.78125 16.0625 C-1.68862915 16.07575821 -2.5960083 16.08901642 -3.53088379 16.10267639 C-9.78844785 16.01015704 -9.78844785 16.01015704 -13.04101562 13.12084961 C-14.95920048 9.42968514 -14.60555239 7.37577057 -13.4375 3.43359375 C-9.83628309 -0.68404435 -5.05819685 -0.016769 0 0 Z " fill="#E4E4E4" transform="translate(274.4375,458.56640625)"/>
<path d="M0 0 C1.3756311 -0.00786278 1.3756311 -0.00786278 2.77905273 -0.0158844 C4.71564726 -0.02230031 6.65228078 -0.02097318 8.58886719 -0.01245117 C11.5521372 -0.00393603 14.51348265 -0.03271638 17.4765625 -0.06445312 C19.35937442 -0.06606512 21.24218976 -0.06548764 23.125 -0.0625 C24.45325806 -0.07935097 24.45325806 -0.07935097 25.80834961 -0.09654236 C31.91170555 -0.02736495 31.91170555 -0.02736495 35.12109375 2.24584961 C37.24452118 5.46875496 37.10099661 7.66411749 36.5625 11.43359375 C35.13476562 13.61694336 35.13476562 13.61694336 32.5625 15.43359375 C29.34664472 16.04253664 26.1717568 16.01784975 22.90625 16 C21.96696655 16.00619858 21.02768311 16.01239716 20.05993652 16.01878357 C18.07626379 16.02587989 16.09253148 16.02271101 14.10888672 16.01000977 C11.07277981 15.99614071 8.03975297 16.0302206 5.00390625 16.06835938 C3.07552008 16.06931055 1.14713005 16.06745183 -0.78125 16.0625 C-1.68862915 16.07575821 -2.5960083 16.08901642 -3.53088379 16.10267639 C-9.78844785 16.01015704 -9.78844785 16.01015704 -13.04101562 13.12084961 C-14.95920048 9.42968514 -14.60555239 7.37577057 -13.4375 3.43359375 C-9.83628309 -0.68404435 -5.05819685 -0.016769 0 0 Z " fill="#E4E4E4" transform="translate(396.4375,458.56640625)"/>
<path d="M0 0 C2.56774778 2.56774778 4.67269076 4.69658262 6.75 7.5625 C7.17796875 8.14128906 7.6059375 8.72007812 8.046875 9.31640625 C9 11 9 11 9 14 C2.07 16.97 -4.86 19.94 -12 23 C-1.77 23.33 8.46 23.66 19 24 C19 24.33 19 24.66 19 25 C11.9525442 25.07602812 4.90519406 25.12859061 -2.14257812 25.16479492 C-4.54040479 25.17988682 -6.93820383 25.2003625 -9.3359375 25.22631836 C-12.78131933 25.26268311 -16.22633637 25.27972248 -19.671875 25.29296875 C-20.74491882 25.30845261 -21.81796265 25.32393646 -22.92352295 25.33988953 C-23.92425842 25.34011612 -24.9249939 25.34034271 -25.95605469 25.34057617 C-26.83541687 25.34723801 -27.71477905 25.35389984 -28.62078857 25.36076355 C-31.62751687 24.90484863 -32.91129399 24.21597138 -35 22 C-35.33 20.02 -35.66 18.04 -36 16 C-24.12 10.72 -12.24 5.44 0 0 Z " fill="#CE3B1D" transform="translate(304,374)"/>
<path d="M0 0 C2.5 1.625 2.5 1.625 4 4 C4.5625 6.9375 4.5625 6.9375 4 10 C1.54405875 13.32274404 0.0743356 14.77618008 -4 15.625 C-8.11289267 14.76814736 -9.59686932 13.42264067 -12 10 C-12 6.48044581 -11.63108355 4.15079941 -9.9375 1.0625 C-6.73774742 -0.69220303 -3.5005106 -0.626852 0 0 Z " fill="#FEFCF4" transform="translate(274,247)"/>
<path d="M0 0 C3 2.0625 3 2.0625 5 5 C5.06584389 8.81894541 4.85572029 10.97971812 2.375 13.9375 C-1.01168643 15.45259656 -3.33417263 15.52368962 -7 15 C-9.5 12.9375 -9.5 12.9375 -11 10 C-10.93977486 6.50694211 -10.63658168 4.09633511 -8.875 1.0625 C-5.76581435 -0.69937187 -3.49155423 -0.48159369 0 0 Z " fill="#079CFD" transform="translate(210,392)"/>
<path d="M0 0 C2.4375 1.625 2.4375 1.625 4 4 C4.64250722 7.77472994 4.26836859 9.50620179 2.4375 12.875 C0 15 0 15 -3.5 15.5625 C-7 15 -7 15 -9.4375 13.5 C-11.79893062 9.72171101 -11.56153595 7.42209561 -11 3 C-8.06403859 -0.7580306 -4.50318499 -0.56289812 0 0 Z " fill="#FEFDF8" transform="translate(330,247)"/>
<path d="M0 0 C2.4375 1.625 2.4375 1.625 4 4 C4.5625 6.9375 4.5625 6.9375 4 10 C1.51397551 13.36344489 0.08574477 14.80057749 -4.0625 15.5625 C-7 15 -7 15 -9.375 13.5 C-11.82483134 9.73102871 -11.5659239 7.45665069 -11 3 C-8.06403859 -0.7580306 -4.50318499 -0.56289812 0 0 Z " fill="#FEFDF9" transform="translate(302,247)"/>
<path d="M0 0 C1.21236328 0.04060547 1.21236328 0.04060547 2.44921875 0.08203125 C3.06410156 0.11683594 3.67898438 0.15164063 4.3125 0.1875 C4.65070166 1.7698006 4.98285939 3.35339375 5.3125 4.9375 C5.498125 5.81921875 5.68375 6.7009375 5.875 7.609375 C6.3125 10.1875 6.3125 10.1875 6.3125 14.1875 C1.07977367 12.54791242 -3.83946636 10.79797965 -8.6875 8.1875 C-7.89324492 2.31001244 -6.14505479 -0.2671763 0 0 Z " fill="#CE3B1D" transform="translate(276.6875,311.8125)"/>
<path d="M0 0 C8.25 0 16.5 0 25 0 C25 3.3 25 6.6 25 10 C16.55521358 7.25262948 8.19092172 4.4498235 0 1 C0 0.67 0 0.34 0 0 Z " fill="#E5E8ED" transform="translate(211,366)"/>
<path d="M0 0 C0.66 0.33 1.32 0.66 2 1 C-0.97 3.97 -3.94 6.94 -7 10 C-7.33 9.34 -7.66 8.68 -8 8 C-3.375 2.25 -3.375 2.25 0 0 Z " fill="#005B99" transform="translate(24,138)"/>
</svg>
